<?xml version="1.0" standalone="no"?><!DOCTYPE svg PUBLIC "-//W3C//DTD SVG 1.1//EN" "http://www.w3.org/Graphics/SVG/1.1/DTD/svg11.dtd"><svg t="1525708396712" class="icon" style="" viewBox="0 0 1024 1024" version="1.1" xmlns="http://www.w3.org/2000/svg" p-id="902" xmlns:xlink="http://www.w3.org/1999/xlink" width="48" height="48"><defs><style type="text/css"></style></defs><path d="M512.543 72.54c-242.074 0-438.303 196.9-438.303 439.798s196.23 439.798 438.303 439.798c242.063 0 438.302-196.9 438.302-439.798S754.611 72.54 512.543 72.54z m194.11 360.883l-208.62 209.854v-0.02c-6.308 6.348-14.987 10.25-24.628 10.25-9.6 0-18.314-3.943-24.606-10.25L310.195 503.67a34.729 34.729 0 0 1-10.168-24.622c0-19.303 15.59-34.914 34.77-34.914 9.62 0 18.32 3.922 24.627 10.25l113.981 114.812 184.018-185.088a34.66 34.66 0 0 1 24.622-10.22c19.185 0 34.755 15.616 34.755 34.872a34.885 34.885 0 0 1-10.148 24.663z" p-id="903" fill="#2745DB"></path></svg>