<?xml version="1.0" standalone="no"?><!DOCTYPE svg PUBLIC "-//W3C//DTD SVG 1.1//EN" "http://www.w3.org/Graphics/SVG/1.1/DTD/svg11.dtd"><svg t="1525708310672" class="icon" style="" viewBox="0 0 1024 1024" version="1.1" xmlns="http://www.w3.org/2000/svg" p-id="660" xmlns:xlink="http://www.w3.org/1999/xlink" width="48" height="48"><defs><style type="text/css"></style></defs><path d="M952.53 459.753a34.91 34.91 0 0 0-49.362 0l-21.085 21.085C860.625 276.318 687.22 116.364 477.09 116.364a400.57 400.57 0 0 0-48.687 3.211c-7.843 0.931-15.616 2.165-23.342 3.561-4.701 0.838-9.402 1.583-14.01 2.56-9.845 2.164-19.573 4.655-29.161 7.54-6.866 2.025-13.522 4.399-20.247 6.75-3.538 1.28-7.122 2.56-10.636 3.933-7.238 2.792-14.336 5.701-21.364 8.89-1.49 0.675-2.98 1.443-4.469 2.14-15.592 7.332-30.65 15.5-45.079 24.647l-1.932 1.163a394.31 394.31 0 0 0-26.624 18.735 411.322 411.322 0 0 0-54.55 49.78c-2.445 2.653-4.888 5.26-7.262 7.983a375.04 375.04 0 0 0-20.783 26.205 407.32 407.32 0 0 0-37.771 62.557c-1 2.071-2.141 4.026-3.119 6.097-0.232 0.42-0.279 0.861-0.465 1.28a404.34 404.34 0 0 0-37.772 170.24c0 224.582 182.691 407.273 407.273 407.273 143.476 0 273.687-73.309 348.3-196.05a34.91 34.91 0 0 0-59.672-36.258c-61.835 101.748-169.728 162.49-288.628 162.49-186.066 0-337.455-151.39-337.455-337.455a335.127 335.127 0 0 1 32.908-144.384 335.756 335.756 0 0 1 37.841-61.58 319.26 319.26 0 0 1 12.8-15.615l3.398-3.747a341.225 341.225 0 0 1 48.152-44.102l3.258-2.444a340.62 340.62 0 0 1 58.112-34.327l1.908-0.93a313.32 313.32 0 0 1 26.391-10.567c5.772-2.094 11.52-4.096 17.408-5.841 7.843-2.327 15.803-4.422 23.901-6.167 3.91-0.861 7.913-1.467 11.846-2.188a371.48 371.48 0 0 1 29.417-4.05c9.937-0.93 19.968-1.535 30.115-1.535 169.379 0 309.597 125.556 333.475 288.395l-14.802-14.825a34.91 34.91 0 1 0-49.361 49.339l78.382 78.429a34.932 34.932 0 0 0 49.339 0l78.405-78.43a34.91 34.91 0 0 0 0-49.338" p-id="661" fill="#2745DB"></path></svg>